# xmcd
#
# Track frame offsets:
#	150
#	71744
#	95350
#	118431
#	143383
#	180856
#	227835
#	264859
#
# Disc length: 3719 seconds
#
# Revision: 1
# Processed by: cddbd v1.5.2PL0 Copyright (c) Steve Scherf et al.
# Submitted via: audiograbber 1.83.01
#
DISCID=640e8508
DTITLE=Grateful Dead - 82-09-12 Lakeland Civic Centre Arena, Lakeland FL
DYEAR=1900
DGENRE=
TTITLE0=Playing In The Band
TTITLE1=Drums
TTITLE2=Space
TTITLE3=The Wheel
TTITLE4=Not Fade Away
TTITLE5=Morning Dew
TTITLE6=Sugar Magnolia
TTITLE7=Don't Ease Me In
EXTD=
EXTT0=
EXTT1=
EXTT2=
EXTT3=
EXTT4=
EXTT5=
EXTT6=
EXTT7=
PLAYORDER=
